<svg width="259" height="46" viewBox="0 0 259 46" fill="none" xmlns="http://www.w3.org/2000/svg">
<path d="M11.2638 44.7998H-0.000234365V42.2398H4.03177V2.4958H-0.000234365V-0.000198364H13.4398C16.5118 -0.000198364 19.4131 0.533136 22.1438 1.5998C24.8744 2.6238 27.2638 4.0958 29.3118 6.0158C31.3598 7.97847 32.9811 10.3465 34.1758 13.1198C35.3704 15.8931 35.9678 18.9865 35.9678 22.3998C35.9678 24.9171 35.5198 27.4985 34.6238 30.1438C33.7704 32.7891 32.3624 35.1998 30.3998 37.3758C28.4371 39.5518 25.8771 41.3438 22.7198 42.7518C19.6051 44.1171 15.7864 44.7998 11.2638 44.7998ZM6.65577 2.4958V42.2398H12.2238C15.7651 42.2398 18.8584 41.6851 21.5038 40.5758C24.1918 39.4238 26.4104 37.9091 28.1598 36.0318C29.9091 34.1971 31.2104 32.1065 32.0638 29.7598C32.9598 27.3705 33.4078 24.9171 33.4078 22.3998C33.4078 19.3705 32.8744 16.6398 31.8078 14.2078C30.7838 11.7331 29.3544 9.62114 27.5198 7.8718C25.6851 6.16514 23.5518 4.84247 21.1198 3.9038C18.7304 2.96514 16.1704 2.4958 13.4398 2.4958H6.65577ZM52.9813 22.8478C51.3599 22.8478 49.8666 23.1891 48.5013 23.8718C47.1786 24.5545 46.0693 25.4718 45.1733 26.6238C44.3199 27.7331 43.7226 28.9918 43.3813 30.3998C43.0399 31.7651 43.0186 33.1731 43.3173 34.6238C46.2186 33.4718 49.0986 32.3411 51.9573 31.2318C54.8586 30.0798 57.7599 28.9278 60.6613 27.7758C59.8933 26.3251 58.8266 25.1518 57.4613 24.2558C56.1386 23.3171 54.6453 22.8478 52.9813 22.8478ZM61.3653 41.9198C60.2559 42.9438 58.9973 43.7545 57.5893 44.3518C56.1813 44.9491 54.6453 45.2478 52.9813 45.2478C51.2319 45.2478 49.5893 44.9278 48.0533 44.2878C46.5599 43.6478 45.2373 42.7518 44.0853 41.5998C42.9333 40.4478 42.0373 39.1251 41.3973 37.6318C40.7573 36.1385 40.4373 34.5171 40.4373 32.7678C40.4373 31.0611 40.7573 29.4398 41.3973 27.9038C42.0373 26.3678 42.9333 25.0451 44.0853 23.9358C45.2373 22.8265 46.5599 21.9518 48.0533 21.3118C49.5893 20.6291 51.2319 20.2878 52.9813 20.2878C54.3039 20.2878 55.5626 20.5225 56.7573 20.9918C57.9519 21.4185 59.0186 22.0585 59.9573 22.9118C60.8533 23.6798 61.6426 24.6185 62.3253 25.7278C63.0079 26.7945 63.5626 27.9678 63.9893 29.2478C60.6613 30.5705 57.3333 31.8718 54.0053 33.1518C50.7199 34.4318 47.4133 35.7545 44.0853 37.1198C44.8533 38.7838 46.0266 40.1278 47.6053 41.1518C49.1839 42.1758 50.9759 42.6878 52.9813 42.6878C54.3039 42.6878 55.5413 42.4531 56.6933 41.9838C57.8453 41.5145 58.8693 40.8531 59.7653 39.9998L61.3653 41.9198ZM98.6393 44.7998H91.5353V42.1758C91.5353 41.6638 91.5353 41.1945 91.5353 40.7678C91.5353 40.2985 91.5353 39.7865 91.5353 39.2318C91.2366 39.9998 90.7673 40.7465 90.1273 41.4718C89.5299 42.1545 88.8046 42.7731 87.9513 43.3278C87.0553 43.9251 86.0313 44.3945 84.8793 44.7358C83.7699 45.0771 82.5753 45.2478 81.2953 45.2478C79.5033 45.2478 77.8393 44.9278 76.3033 44.2878C74.8099 43.6478 73.4873 42.7518 72.3353 41.5998C71.1833 40.4478 70.2873 39.1251 69.6473 37.6318C69.0073 36.1385 68.6873 34.5171 68.6873 32.7678C68.6873 31.1038 69.0073 29.5038 69.6473 27.9678C70.2873 26.4318 71.1833 25.0878 72.3353 23.9358C73.4873 22.8265 74.8099 21.9518 76.3033 21.3118C77.8393 20.6291 79.5033 20.2878 81.2953 20.2878C83.8126 20.2878 85.9673 20.9065 87.7593 22.1438C89.5513 23.3385 90.8099 24.7678 91.5353 26.4318C91.5353 25.5358 91.5566 24.6185 91.5993 23.6798C91.6419 22.6985 91.7059 21.7385 91.7913 20.7998H93.9033V42.3038H98.6393V44.7998ZM81.2953 22.8478C79.8446 22.8478 78.5006 23.1038 77.2633 23.6158C76.0259 24.1278 74.9806 24.8531 74.1273 25.7918C73.2313 26.6878 72.5273 27.7331 72.0153 28.9278C71.5459 30.1225 71.3113 31.4025 71.3113 32.7678C71.3113 34.2185 71.5886 35.5625 72.1433 36.7998C72.6979 38.0371 73.4659 39.1038 74.4473 39.9998C75.3433 40.8531 76.3673 41.5145 77.5193 41.9838C78.6713 42.4531 79.9299 42.6878 81.2953 42.6878C82.6606 42.6878 83.9406 42.4531 85.1353 41.9838C86.3299 41.4718 87.3753 40.7678 88.2713 39.8718C89.2099 38.9758 89.9353 37.9305 90.4473 36.7358C91.0019 35.4985 91.2793 34.1758 91.2793 32.7678C91.2793 31.3598 91.0019 30.0585 90.4473 28.8638C89.9353 27.6265 89.2313 26.5598 88.3353 25.6638C87.3966 24.7678 86.3299 24.0851 85.1353 23.6158C83.9406 23.1038 82.6606 22.8478 81.2953 22.8478ZM115.477 44.7998H103.125V42.3038H108.117V23.2958H103.509V20.7998H110.229L110.421 24.1918C110.463 24.9171 110.485 25.3865 110.485 25.5998C110.485 25.8131 110.506 26.2825 110.549 27.0078C111.018 25.9411 111.615 25.0025 112.341 24.1918C113.109 23.3385 113.962 22.6345 114.901 22.0798C115.797 21.5251 116.714 21.0985 117.653 20.7998C118.634 20.5011 119.615 20.3305 120.597 20.2878L120.469 22.9118C119.189 22.9118 117.973 23.1251 116.821 23.5518C115.711 23.9358 114.73 24.4905 113.877 25.2158C112.895 25.9411 112.127 26.8798 111.573 28.0318C111.018 29.1411 110.741 30.3571 110.741 31.6798V42.3038H115.477V44.7998ZM149.062 44.7998H136.198V42.3038H141.446V2.4958H127.558V9.8558H125.062V-0.000198364H160.454V9.8558H157.958V2.4958H144.07V42.3038H149.062V44.7998ZM177.289 44.7998H164.937V42.3038H169.865V23.2958H164.937V20.7998H172.489V42.3038H177.289V44.7998ZM173.321 12.2878C173.321 12.8851 173.108 13.3971 172.681 13.8238C172.255 14.2078 171.764 14.3998 171.209 14.3998C170.697 14.3998 170.228 14.2078 169.801 13.8238C169.375 13.3971 169.161 12.8851 169.161 12.2878C169.161 11.6905 169.375 11.1998 169.801 10.8158C170.228 10.3891 170.697 10.1758 171.209 10.1758C171.764 10.1758 172.255 10.3891 172.681 10.8158C173.108 11.1998 173.321 11.6905 173.321 12.2878ZM194.102 44.7998H181.75V42.3038H186.742V23.2958H182.134V20.7998H188.854L188.918 23.1038C188.96 23.8291 189.003 24.4905 189.046 25.0878C189.088 25.6425 189.131 26.2825 189.174 27.0078C190.027 25.0025 191.371 23.4025 193.206 22.2078C195.083 20.9705 197.238 20.3305 199.67 20.2878C201.846 20.2878 203.616 20.8851 204.982 22.0798C206.347 23.2318 207.136 24.7678 207.35 26.6878C208.288 24.7678 209.654 23.2318 211.446 22.0798C213.28 20.9278 215.371 20.3305 217.718 20.2878C220.107 20.2878 221.963 20.9491 223.286 22.2718C224.651 23.5945 225.376 25.3225 225.462 27.4558V42.3038H230.198V44.7998H217.91V42.3038H222.838V28.1598C222.752 26.7518 222.24 25.5571 221.302 24.5758C220.406 23.5518 219.062 22.9971 217.27 22.9118C215.99 22.9118 214.752 23.1251 213.558 23.5518C212.406 23.9785 211.382 24.5545 210.486 25.2798C209.59 26.0478 208.864 26.9651 208.31 28.0318C207.755 29.0558 207.456 30.1865 207.414 31.4238V42.3038H212.15V44.7998H199.798V42.3038H204.79V28.1598C204.704 26.7518 204.192 25.5571 203.254 24.5758C202.358 23.5518 201.014 22.9971 199.222 22.9118C197.899 22.9118 196.64 23.1251 195.446 23.5518C194.251 23.9785 193.227 24.5758 192.374 25.3438C191.435 26.1545 190.688 27.0931 190.134 28.1598C189.622 29.2265 189.366 30.3998 189.366 31.6798V42.3038H194.102V44.7998ZM247.231 22.8478C245.61 22.8478 244.117 23.1891 242.751 23.8718C241.429 24.5545 240.319 25.4718 239.423 26.6238C238.57 27.7331 237.973 28.9918 237.631 30.3998C237.29 31.7651 237.269 33.1731 237.567 34.6238C240.469 33.4718 243.349 32.3411 246.207 31.2318C249.109 30.0798 252.01 28.9278 254.911 27.7758C254.143 26.3251 253.077 25.1518 251.711 24.2558C250.389 23.3171 248.895 22.8478 247.231 22.8478ZM255.615 41.9198C254.506 42.9438 253.247 43.7545 251.839 44.3518C250.431 44.9491 248.895 45.2478 247.231 45.2478C245.482 45.2478 243.839 44.9278 242.303 44.2878C240.81 43.6478 239.487 42.7518 238.335 41.5998C237.183 40.4478 236.287 39.1251 235.647 37.6318C235.007 36.1385 234.687 34.5171 234.687 32.7678C234.687 31.0611 235.007 29.4398 235.647 27.9038C236.287 26.3678 237.183 25.0451 238.335 23.9358C239.487 22.8265 240.81 21.9518 242.303 21.3118C243.839 20.6291 245.482 20.2878 247.231 20.2878C248.554 20.2878 249.813 20.5225 251.007 20.9918C252.202 21.4185 253.269 22.0585 254.207 22.9118C255.103 23.6798 255.893 24.6185 256.575 25.7278C257.258 26.7945 257.813 27.9678 258.239 29.2478C254.911 30.5705 251.583 31.8718 248.255 33.1518C244.97 34.4318 241.663 35.7545 238.335 37.1198C239.103 38.7838 240.277 40.1278 241.855 41.1518C243.434 42.1758 245.226 42.6878 247.231 42.6878C248.554 42.6878 249.791 42.4531 250.943 41.9838C252.095 41.5145 253.119 40.8531 254.015 39.9998L255.615 41.9198Z" fill="white"/>
</svg>
